<mxfile host="app.diagrams.net" modified="2024-04-24T11:21:41.119Z" agent="Mozilla/5.0 (Windows NT 10.0; Win64; x64; rv:124.0) Gecko/20100101 Firefox/124.0" version="24.2.9" etag="qtTqFc0pqURGRiQxbN8M" type="github">
  <diagram name="Page-1" id="LEyRh2nG3esnOKUCE2bX">
    <mxGraphModel>
      <root>
        <mxCell id="0" />
        <mxCell id="1" parent="0" />
      </root>
    </mxGraphModel>
  </diagram>
</mxfile>
